<?xml version="1.0" standalone="no"?>
<!DOCTYPE svg PUBLIC "-//W3C//DTD SVG 20010904//EN"
 "http://www.w3.org/TR/2001/REC-SVG-20010904/DTD/svg10.dtd">
<svg version="1.0" xmlns="http://www.w3.org/2000/svg"
 width="640.000000pt" height="267.000000pt" viewBox="0 0 640.000000 267.000000"
 preserveAspectRatio="xMidYMid meet">

<g transform="translate(0.000000,267.000000) scale(0.100000,-0.100000)"
fill="#fff" stroke="none">
<path d="M3850 2321 c-38 -38 -45 -71 -32 -154 23 -150 188 -411 426 -673 48
-52 86 -102 86 -112 0 -14 -47 -26 -316 -76 -230 -44 -320 -57 -332 -50 -23
14 -344 405 -434 528 -40 55 -83 110 -96 123 -29 31 -63 27 -76 -9 -8 -24 -4
-34 36 -85 111 -141 225 -345 295 -527 37 -96 35 -109 -16 -109 -20 0 -69 26
-153 80 -367 240 -674 408 -1003 548 -60 26 -270 100 -465 165 -195 65 -377
128 -405 140 -75 34 -166 60 -206 60 -20 0 -62 -9 -95 -21 -37 -13 -118 -25
-219 -35 -88 -8 -196 -23 -240 -34 -210 -52 -364 -181 -415 -348 -52 -168 -3
-319 155 -478 226 -227 604 -398 1017 -460 58 -8 215 -18 361 -21 l258 -6 122
-92 c416 -312 743 -469 1007 -482 271 -13 429 97 495 347 17 64 25 216 15 295
-4 31 -2 40 12 43 9 2 79 -40 156 -92 141 -96 181 -113 210 -84 7 7 12 29 12
49 0 31 -18 63 -111 195 -114 164 -144 212 -135 221 10 10 152 43 218 51 l68
8 0 -42 c0 -39 7 -51 65 -118 133 -152 244 -236 366 -276 85 -28 124 -19 201
50 31 27 66 50 77 50 12 0 49 -12 83 -26 125 -52 577 -206 703 -239 419 -109
668 -87 746 68 42 82 7 220 -82 321 -44 49 -168 136 -264 184 -90 45 -188 77
-352 117 -130 32 -152 41 -183 70 -19 19 -47 37 -62 40 -24 6 -29 3 -38 -20
-10 -27 -11 -27 -78 -21 -37 3 -169 9 -294 12 l-227 7 -70 141 c-112 230 -275
457 -466 651 -145 147 -260 192 -325 126z m181 -106 c66 -41 124 -101 242
-252 161 -206 282 -399 323 -515 13 -38 13 -39 -12 -48 -14 -6 -45 -10 -69
-10 -42 0 -46 3 -164 126 -200 208 -312 357 -397 529 -68 139 -70 226 -5 210
14 -4 51 -22 82 -40z m-3054 -225 c45 -138 158 -334 278 -485 81 -102 317
-355 461 -494 68 -66 124 -125 124 -130 0 -17 -91 -24 -240 -18 -396 17 -737
122 -1026 315 -111 74 -246 208 -279 276 -54 111 -53 226 2 328 83 152 326
260 577 255 l88 -2 15 -45z m233 29 c151 -23 315 -60 364 -82 53 -24 234 -135
391 -240 70 -46 159 -128 403 -371 171 -171 312 -314 312 -318 0 -28 -493
-118 -651 -118 l-59 0 -88 78 c-118 107 -415 414 -514 531 -142 171 -298 429
-298 495 0 40 5 46 39 41 14 -3 60 -10 101 -16z m910 -256 c256 -95 684 -318
960 -499 127 -83 176 -123 159 -128 -84 -27 -136 -41 -268 -75 -172 -44 -175
-43 -211 20 -11 21 -35 55 -53 77 -48 57 -603 570 -635 586 -15 7 -40 17 -57
20 -16 4 -41 16 -55 27 l-25 20 45 -6 c25 -4 88 -23 140 -42z m1440 -498 c21
-32 18 -45 -9 -45 -11 0 -27 20 -44 56 l-28 57 31 -20 c18 -11 40 -33 50 -48z
m1571 44 c58 -5 127 -16 155 -23 l49 -13 -1 -55 c-2 -101 -73 -206 -154 -228
-71 -19 -246 38 -363 119 -42 29 -46 36 -62 102 -9 43 -12 76 -7 81 26 26 215
34 383 17z m-481 -28 c14 -27 13 -41 -5 -41 -20 0 -57 38 -50 50 10 17 44 11
55 -9z m-150 -40 c79 -59 190 -163 190 -176 -1 -40 -18 -36 -274 67 -141 56
-256 105 -256 109 0 13 162 44 250 48 16 0 49 -17 90 -48z m1093 -6 c217 -50
424 -147 527 -246 89 -85 127 -201 87 -263 -60 -90 -293 -100 -592 -25 -173
44 -585 187 -585 203 0 3 26 3 58 0 161 -17 278 81 327 277 23 91 22 90 47 85
13 -3 72 -17 131 -31z m-1880 -167 c31 -40 80 -106 108 -147 46 -64 49 -72 28
-66 -37 12 -225 143 -254 177 -45 54 -28 107 35 108 20 0 38 -16 83 -72z m775
-60 l163 -71 -23 -24 c-13 -14 -36 -32 -52 -40 -55 -29 -145 7 -267 106 -65
52 -149 140 -149 155 0 9 153 -50 328 -126z m-1048 15 c60 -42 70 -53 80 -93
49 -190 18 -427 -70 -538 -49 -62 -118 -98 -223 -114 -146 -22 -313 16 -542
126 -153 73 -196 100 -413 254 -114 82 -158 119 -148 124 43 24 461 113 589
125 l68 6 47 -45 c61 -59 86 -72 112 -58 26 14 26 57 0 90 -11 14 -20 30 -20
37 0 20 185 80 355 117 96 20 89 21 165 -31z m1410 -38 c36 -19 38 -25 6 -25
-29 0 -82 39 -53 40 10 0 31 -7 47 -15z"/>
</g>
</svg>
